<?xml version="1.0" encoding="UTF-8"?>
<svg version="1.1" xmlns="http://www.w3.org/2000/svg" width="391" height="372">
<path d="M0 0 C1.29587036 -0.01546875 1.29587036 -0.01546875 2.61791992 -0.03125 C9.32359966 0.06176781 15.89519275 0.95993736 21.3046875 5.19140625 C21.84351563 5.78824219 22.38234375 6.38507812 22.9375 7 C29.91853409 13.51379952 39.62453881 12.79003053 48.6875 12.62109375 C56.83905911 12.17766403 61.38338065 11.54255331 67.0625 5.4375 C74.13476009 0.76025562 80.39358742 -0.35070375 88.75 -0.125 C89.80509766 -0.10695312 90.86019531 -0.08890625 91.94726562 -0.0703125 C108.2666009 0.42936096 125.48143671 5.55716279 137.4375 17.1875 C140.88472811 20.88761357 142.84454848 23.75615971 143.5 28.8125 C142.96696275 33.22909434 141.49615449 35.72845365 138.0625 38.4375 C135.46903151 39.75734436 132.86324762 40.66353595 130.0625 41.4375 C129.46953125 41.62054688 128.8765625 41.80359375 128.265625 41.9921875 C111.6864668 45.34329395 93.74607162 39.95789519 79.0625 32.4375 C78.08410156 31.76074219 77.10570312 31.08398438 76.09765625 30.38671875 C69.02910452 25.8471984 59.45987836 23.80194318 51.0625 23.4375 C50.05058594 23.3859375 49.03867188 23.334375 47.99609375 23.28125 C35.47915349 22.94560021 23.3851478 24.99932317 12.0625 30.4375 C11.46872559 30.71223145 10.87495117 30.98696289 10.26318359 31.27001953 C-1.10178338 36.44009243 -1.10178338 36.44009243 -7.9375 46.4375 C-8.24816406 47.14777344 -8.55882812 47.85804687 -8.87890625 48.58984375 C-11.93224822 56.38065802 -12.00303092 63.47108422 -9.0625 71.3125 C-7.00878985 75.47242993 -5.41779277 77.14996104 -1.0625 78.75 C-0.19753906 79.01683594 0.66742188 79.28367187 1.55859375 79.55859375 C6.7056626 81.36528718 10.05253157 84.85521612 12.9375 89.375 C14.17345795 92.7395522 14.70652204 95.87772039 15.0625 99.4375 C16.2071875 99.80875 16.2071875 99.80875 17.375 100.1875 C21.3806501 101.54534749 25.32880891 103.03027566 29.28125 104.53515625 C41.97438936 108.65329556 56.89674924 107.51789033 69.0625 102.4375 C70.12082031 101.99664062 71.17914063 101.55578125 72.26953125 101.1015625 C75.47417731 99.19222093 76.15337812 98.03609277 77.5 94.625 C80.79441284 87.48537343 84.97213815 84.08288403 92.1875 81.0625 C105.74240791 76.64282334 120.97324779 79.88791338 133.484375 86.0703125 C134.33515625 86.52148438 135.1859375 86.97265625 136.0625 87.4375 C136.89265625 87.86804688 137.7228125 88.29859375 138.578125 88.7421875 C152.57884301 96.53503998 163.07989078 108.16821367 168.0625 123.4375 C170.19236556 130.93462677 169.36277553 138.41326492 166.0625 145.4375 C161.30620396 152.22221641 155.15053166 155.92278029 147.0625 157.4375 C128.20402371 159.29338515 110.9243494 154.39817768 96.19140625 142.32421875 C94.67416086 140.97957743 93.18460061 139.60342254 91.71484375 138.20703125 C78.26517821 125.48207035 62.19714803 120.81114797 43.98071289 121.03295898 C26.69660741 121.57382215 9.48985349 124.9137412 -3.6875 136.8125 C-8.06942249 140.71776298 -12.81011259 143.61086335 -17.9375 146.4375 C-18.618125 146.8190625 -19.29875 147.200625 -20 147.59375 C-31.75889305 153.85251565 -46.61833063 156.56042226 -59.69921875 153.21875 C-67.42622355 150.52171516 -72.9303722 146.70288253 -76.9375 139.4375 C-80.12715788 131.58188989 -79.45659625 123.67474176 -76.62109375 115.765625 C-72.88414146 107.82351758 -68.21770679 101.5307304 -61.9375 95.4375 C-61.33550781 94.82648438 -60.73351562 94.21546875 -60.11328125 93.5859375 C-56.49254394 90.14584435 -52.65685788 87.64824781 -48.33178711 85.20556641 C-41.33233601 81.24335748 -36.43937041 77.96333787 -32.9375 70.4375 C-32.53144531 69.64472656 -32.12539062 68.85195312 -31.70703125 68.03515625 C-28.29218615 60.65769226 -27.81141322 53.58994501 -29.9375 45.75 C-30.2675 44.986875 -30.5975 44.22375 -30.9375 43.4375 C-31.69933594 43.35113281 -32.46117187 43.26476562 -33.24609375 43.17578125 C-40.27479652 42.21931608 -46.20053069 40.77238488 -51.9375 36.4375 C-54.64008432 32.38362352 -54.58353845 29.1969225 -53.9375 24.4375 C-48.29555214 12.92792636 -34.66917623 7.02385863 -23.078125 3.0390625 C-15.37287255 0.8218368 -8.01391136 0.07893396 0 0 Z " fill="##0099FF" transform="translate(147.9375,40.5625)"/>
<path d="M0 0 C0.8419693 -0.00428513 1.6839386 -0.00857025 2.55142212 -0.01298523 C4.3282176 -0.01871391 6.10503654 -0.01923959 7.88183594 -0.01489258 C10.58569825 -0.01173726 13.28846064 -0.03519328 15.9921875 -0.06054688 C17.72395696 -0.06282064 19.45572935 -0.063523 21.1875 -0.0625 C21.98876312 -0.07170975 22.79002625 -0.08091949 23.61557007 -0.09040833 C29.97648663 -0.03855827 34.79164761 1.11560122 39.6640625 5.48828125 C40.1796875 6.08640625 40.6953125 6.68453125 41.2265625 7.30078125 C42.37125 5.84671875 42.37125 5.84671875 43.5390625 4.36328125 C45.49405065 1.87991793 46.08306409 1.34861405 49.2265625 0.30078125 C50.868147 0.21339227 52.51307872 0.18311504 54.15698242 0.18725586 C55.15779343 0.18733139 56.15860443 0.18740692 57.18974304 0.18748474 C58.26794815 0.19264603 59.34615326 0.19780731 60.45703125 0.203125 C61.56258865 0.20453995 62.66814606 0.2059549 63.8072052 0.20741272 C67.34285167 0.21301611 70.87843512 0.22556921 74.4140625 0.23828125 C76.80924388 0.24329581 79.20442625 0.24785879 81.59960938 0.25195312 C87.47528197 0.26298664 93.35091773 0.27972809 99.2265625 0.30078125 C98.53125 5.01953125 98.53125 5.01953125 95.7890625 7.55078125 C91.62713323 10.39307441 88.51878051 10.50495526 83.59375 10.6171875 C82.84191437 10.6379686 82.09007874 10.65874969 81.31546021 10.68016052 C78.91092165 10.7456083 76.50627283 10.80451863 74.1015625 10.86328125 C72.47264479 10.90647102 70.84373828 10.95008546 69.21484375 10.99414062 C65.21886335 11.10128476 61.22277191 11.20256558 57.2265625 11.30078125 C57.2265625 13.61078125 57.2265625 15.92078125 57.2265625 18.30078125 C58.62563843 18.33836548 58.62563843 18.33836548 60.05297852 18.37670898 C63.54006166 18.47230193 67.02700438 18.57150584 70.51391602 18.6730957 C72.01810749 18.71619251 73.52233998 18.75788332 75.02661133 18.7980957 C77.19885576 18.85641582 79.37089852 18.91992609 81.54296875 18.984375 C83.49891968 19.03936157 83.49891968 19.03936157 85.49438477 19.09545898 C95.40596481 19.64073529 95.40596481 19.64073529 99.1015625 22.61328125 C102.44012697 26.83558337 102.402883 30.42721719 102.4765625 35.73828125 C102.51523437 37.40697266 102.51523437 37.40697266 102.5546875 39.109375 C102.19176055 42.63927164 101.31158642 44.46453548 99.2265625 47.30078125 C92.70438323 51.95948073 82.17215693 50.42944181 74.63671875 50.3984375 C73.33705673 50.39702255 72.03739471 50.3956076 70.698349 50.39414978 C67.26412997 50.39035459 63.82995408 50.38055033 60.39575195 50.3694458 C56.88298119 50.3591668 53.37020338 50.35463833 49.85742188 50.34960938 C42.98045117 50.33892501 36.10350891 50.32188513 29.2265625 50.30078125 C29.20468872 48.77940552 29.20468872 48.77940552 29.18237305 47.22729492 C29.12439997 43.46424096 29.04716791 39.70178604 28.96411133 35.93920898 C28.93085714 34.31072716 28.90282666 32.68212994 28.88012695 31.0534668 C28.84658893 28.71222764 28.79427665 26.37204639 28.73828125 24.03125 C28.72869637 22.93891304 28.72869637 22.93891304 28.71891785 21.82450867 C28.63730515 19.01884654 28.51498001 16.80491548 27.10498047 14.34033203 C24.27276218 12.77293075 21.87978617 12.92941103 18.66015625 12.9375 C16.7255957 12.9384668 16.7255957 12.9384668 14.75195312 12.93945312 C13.74612183 12.95190063 13.74612183 12.95190063 12.7199707 12.96459961 C10.66773362 12.98823896 8.61679217 12.98515273 6.56445312 12.97851562 C-0.20683054 12.47291881 -0.20683054 12.47291881 -5.7734375 15.30078125 C-6.01886891 17.94865914 -6.14693136 20.49981948 -6.1875 23.15234375 C-6.20686615 23.92637543 -6.2262323 24.7004071 -6.2461853 25.49789429 C-6.3060358 27.973744 -6.35238761 30.44964008 -6.3984375 32.92578125 C-6.43661232 34.60288502 -6.47566375 36.27996909 -6.515625 37.95703125 C-6.61174159 42.07145478 -6.69575189 46.18597011 -6.7734375 50.30078125 C-20.79967314 51.37118227 -34.77482147 51.41888366 -48.8359375 51.36328125 C-51.07096253 51.35825216 -53.30598867 51.35369177 -55.54101562 51.34960938 C-60.95184754 51.33872476 -66.36263715 51.32210017 -71.7734375 51.30078125 C-71.7734375 50.64078125 -71.7734375 49.98078125 -71.7734375 49.30078125 C-73.413125 49.36265625 -73.413125 49.36265625 -75.0859375 49.42578125 C-78.7734375 49.30078125 -78.7734375 49.30078125 -81.7734375 47.30078125 C-81.7734375 46.64078125 -81.7734375 45.98078125 -81.7734375 45.30078125 C-82.4334375 45.30078125 -83.0934375 45.30078125 -83.7734375 45.30078125 C-84.7634375 42.66078125 -85.7534375 40.02078125 -86.7734375 37.30078125 C-87.3303125 38.53828125 -87.8871875 39.77578125 -88.4609375 41.05078125 C-90.84479618 45.78504095 -93.44222585 48.33208443 -98.39501953 50.39013672 C-102.51894392 51.50173073 -106.20655132 51.55241144 -110.453125 51.49609375 C-111.26588898 51.49326385 -112.07865295 51.49043396 -112.91604614 51.48751831 C-115.49366425 51.47638744 -118.07092569 51.4512964 -120.6484375 51.42578125 C-122.40364079 51.41574226 -124.15884956 51.40661802 -125.9140625 51.3984375 C-130.20065676 51.3764714 -134.4869868 51.34199103 -138.7734375 51.30078125 C-138.75095947 52.27225098 -138.72848145 53.2437207 -138.70532227 54.24462891 C-138.68783936 55.5135498 -138.67035645 56.7824707 -138.65234375 58.08984375 C-138.62986572 59.35006348 -138.6073877 60.6102832 -138.58422852 61.90869141 C-138.7734375 65.30078125 -138.7734375 65.30078125 -140.7109375 68.67578125 C-143.86178732 70.34766075 -145.02683048 70.48338486 -148.46484375 70.40234375 C-149.67636108 70.38034912 -149.67636108 70.38034912 -150.91235352 70.35791016 C-151.52651123 70.33905762 -152.14066895 70.32020508 -152.7734375 70.30078125 C-152.84971697 62.61448549 -152.90213385 54.92828795 -152.93823242 47.24169922 C-152.95328683 44.62870638 -152.9737348 42.01573867 -152.99975586 39.40283203 C-153.03628528 35.6395852 -153.0531979 31.8766735 -153.06640625 28.11328125 C-153.08189011 26.95151367 -153.09737396 25.78974609 -153.11332703 24.59277344 C-153.11485876 17.15330594 -152.92165425 10.53408494 -147.4609375 4.92578125 C-141.92383197 1.57776395 -136.74024259 0.99229843 -130.375 1 C-129.58120941 0.99571487 -128.78741882 0.99142975 -127.96957397 0.98701477 C-126.29710846 0.9812951 -124.62461807 0.98075371 -122.95214844 0.98510742 C-120.41297298 0.98826318 -117.87496889 0.96479423 -115.3359375 0.93945312 C-113.70312645 0.93717924 -112.07031231 0.93647705 -110.4375 0.9375 C-109.68828278 0.92829025 -108.93906555 0.91908051 -108.16714478 0.90959167 C-102.51505175 0.95843439 -96.5470826 1.7362797 -92.24136353 5.71733093 C-90.21306354 8.10890887 -88.51150742 10.69367638 -86.7734375 13.30078125 C-86.5465625 12.57890625 -86.3196875 11.85703125 -86.0859375 11.11328125 C-84.00440053 6.65284489 -80.82027994 3.99867621 -76.7734375 1.30078125 C-74.6552887 1.04681396 -74.6552887 1.04681396 -72.18188477 1.04199219 C-70.79012779 1.03253571 -70.79012779 1.03253571 -69.37025452 1.02288818 C-68.37021896 1.02693665 -67.37018341 1.03098511 -66.33984375 1.03515625 C-65.31036118 1.0332428 -64.2808786 1.03132935 -63.22019958 1.02935791 C-61.04222367 1.02799646 -58.86423963 1.03169008 -56.6862793 1.04003906 C-53.3525161 1.05072809 -50.01929314 1.04014786 -46.68554688 1.02734375 C-44.57031131 1.02866557 -42.45507608 1.03122841 -40.33984375 1.03515625 C-39.34183243 1.03110779 -38.34382111 1.02705933 -37.31556702 1.02288818 C-35.9190818 1.03234467 -35.9190818 1.03234467 -34.49438477 1.04199219 C-33.26885643 1.04437897 -33.26885643 1.04437897 -32.01856995 1.04681396 C-29.54999411 1.32605696 -27.91203803 2.06671487 -25.7734375 3.30078125 C-25.7734375 3.96078125 -25.7734375 4.62078125 -25.7734375 5.30078125 C-25.1134375 5.30078125 -24.4534375 5.30078125 -23.7734375 5.30078125 C-22.7834375 7.28078125 -21.7934375 9.26078125 -20.7734375 11.30078125 C-20.1753125 10.37265625 -19.5771875 9.44453125 -18.9609375 8.48828125 C-13.7861636 0.94789642 -8.80453242 -0.00996449 0 0 Z M-71.19067383 13.00878906 C-73.07649803 15.73964169 -73.25328529 17.14121042 -73.19921875 20.43359375 C-73.19083984 21.40425781 -73.18246094 22.37492187 -73.17382812 23.375 C-73.14482422 24.38175781 -73.11582031 25.38851563 -73.0859375 26.42578125 C-73.07626953 27.44027344 -73.06660156 28.45476562 -73.05664062 29.5 C-73.17256618 34.56508841 -73.17256618 34.56508841 -71.7734375 39.30078125 C-67.8458224 40.60998628 -64.04773119 40.53540993 -59.94921875 40.6171875 C-59.08781784 40.6379686 -58.22641693 40.65874969 -57.33891296 40.68016052 C-54.58800206 40.74553034 -51.83699594 40.80448257 -49.0859375 40.86328125 C-47.22069329 40.90647842 -45.3554587 40.9500931 -43.49023438 40.99414062 C-38.91806626 41.10119888 -34.3458024 41.20250179 -29.7734375 41.30078125 C-29.7734375 41.96078125 -29.7734375 42.62078125 -29.7734375 43.30078125 C-29.1134375 43.30078125 -28.4534375 43.30078125 -27.7734375 43.30078125 C-27.2784375 45.28078125 -27.2784375 45.28078125 -26.7734375 47.30078125 C-25.1234375 47.30078125 -23.4734375 47.30078125 -21.7734375 47.30078125 C-21.7734375 42.02078125 -21.7734375 36.74078125 -21.7734375 31.30078125 C-36.2934375 31.30078125 -50.8134375 31.30078125 -65.7734375 31.30078125 C-65.1134375 28.66078125 -64.4534375 26.02078125 -63.7734375 23.30078125 C-63.1134375 23.30078125 -62.4534375 23.30078125 -61.7734375 23.30078125 C-61.7734375 22.64078125 -61.7734375 21.98078125 -61.7734375 21.30078125 C-61.1134375 21.30078125 -60.4534375 21.30078125 -59.7734375 21.30078125 C-59.7734375 20.64078125 -59.7734375 19.98078125 -59.7734375 19.30078125 C-51.8534375 19.30078125 -43.9334375 19.30078125 -35.7734375 19.30078125 C-35.7734375 17.32078125 -35.7734375 15.34078125 -35.7734375 13.30078125 C-39.20703558 9.86718317 -44.13399991 10.96253627 -48.7734375 10.9296875 C-49.49144531 10.92984863 -50.20945312 10.93000977 -50.94921875 10.93017578 C-53.13361039 10.92581088 -55.31596725 10.88952424 -57.5 10.8515625 C-58.8906181 10.84569255 -60.28124579 10.84172435 -61.671875 10.83984375 C-62.93692871 10.83162598 -64.20198242 10.8234082 -65.50537109 10.81494141 C-68.81164905 11.05554656 -68.81164905 11.05554656 -71.19067383 13.00878906 Z M-137.16113281 15.0065918 C-139.09951294 17.76476231 -139.24179215 19.16153144 -139.1640625 22.50390625 C-139.15117187 23.48359375 -139.13828125 24.46328125 -139.125 25.47265625 C-139.09148437 26.4884375 -139.05796875 27.50421875 -139.0234375 28.55078125 C-139.00539063 29.58203125 -138.98734375 30.61328125 -138.96875 31.67578125 C-138.92166462 34.21839189 -138.855918 36.75911287 -138.7734375 39.30078125 C-134.14700824 39.37504481 -129.52092741 39.42943617 -124.89404297 39.46557617 C-123.32073928 39.48064489 -121.74747748 39.5011037 -120.17431641 39.52709961 C-117.91037654 39.56356863 -115.64699293 39.58052633 -113.3828125 39.59375 C-112.68162292 39.60923386 -111.98043335 39.62471771 -111.25799561 39.64067078 C-108.23372127 39.64170848 -106.04903118 39.43992796 -103.33105469 38.06762695 C-101.36269312 35.83486321 -101.25877313 34.69052368 -101.2421875 31.73828125 C-101.23703125 30.85914063 -101.231875 29.98 -101.2265625 29.07421875 C-101.24203125 28.15898437 -101.2575 27.24375 -101.2734375 26.30078125 C-101.25796875 25.38554687 -101.2425 24.4703125 -101.2265625 23.52734375 C-101.23429687 22.20863281 -101.23429687 22.20863281 -101.2421875 20.86328125 C-101.24669922 20.06019531 -101.25121094 19.25710938 -101.25585938 18.4296875 C-101.6200596 16.18194615 -101.6200596 16.18194615 -103.39453125 14.54272461 C-107.97447546 12.15169668 -113.18462934 12.82211267 -118.24560547 12.85473633 C-120.26763383 12.86325679 -122.28684357 12.83445485 -124.30859375 12.80273438 C-125.58605469 12.80337891 -126.86351562 12.80402344 -128.1796875 12.8046875 C-129.34822266 12.80283447 -130.51675781 12.80098145 -131.72070312 12.79907227 C-134.83648838 13.08036355 -134.83648838 13.08036355 -137.16113281 15.0065918 Z M43.2265625 24.30078125 C43.2265625 29.25078125 43.2265625 34.20078125 43.2265625 39.30078125 C49.31378996 39.35012279 55.4009017 39.38647292 61.48828125 39.41064453 C63.56024197 39.42071837 65.63218843 39.43437791 67.70410156 39.45166016 C70.67777014 39.47584789 73.6512512 39.48725033 76.625 39.49609375 C77.55524994 39.50641632 78.48549988 39.51673889 79.44393921 39.52737427 C80.73505112 39.52760086 80.73505112 39.52760086 82.05224609 39.52783203 C83.19141983 39.53449387 83.19141983 39.53449387 84.35360718 39.54129028 C86.47158549 39.4632828 86.47158549 39.4632828 88.2265625 37.30078125 C88.47660214 33.75899527 88.47660214 33.75899527 88.2265625 30.30078125 C86.19584444 28.27006319 82.00457849 29.11571278 79.2109375 29.08984375 C77.55077158 29.06176392 75.89061547 29.03309938 74.23046875 29.00390625 C71.60596099 28.96270673 68.98163406 28.9258323 66.35693359 28.89941406 C63.82871305 28.87174152 61.30133269 28.82585701 58.7734375 28.77734375 C57.60285797 28.77246445 57.60285797 28.77246445 56.40863037 28.76748657 C51.81717465 28.66430145 48.93843986 28.02184221 45.2265625 25.30078125 C44.5665625 24.97078125 43.9065625 24.64078125 43.2265625 24.30078125 Z " fill="##0099FF" transform="translate(247.7734375,290.69921875)"/>
<path d="M0 0 C12.15846375 -0.64877178 21.59629308 -1.10497058 32 6 C32 6.66 32 7.32 32 8 C32.61875 8.144375 33.2375 8.28875 33.875 8.4375 C36 9 36 9 38 10 C38 10.66 38 11.32 38 12 C38.55171875 12.226875 39.1034375 12.45375 39.671875 12.6875 C42.68692417 14.38725926 44.81230369 16.54804816 47.25 19 C48.14203125 19.886875 49.0340625 20.77375 49.953125 21.6875 C52 24 52 24 52 26 C52.66 26 53.32 26 54 26 C68.51175863 50.44456429 68.51175863 50.44456429 67 64 C66.18191011 66.78721322 65.14801502 69.32129828 64 72 C63.34 72 62.68 72 62 72 C61.7525 72.61875 61.505 73.2375 61.25 73.875 C59.71549859 76.4836524 58.80765435 76.92523181 56 78 C48.66537106 78.73825677 42.49968508 78.50982994 36 75 C34.329375 74.3503125 34.329375 74.3503125 32.625 73.6875 C28.12688493 71.59354988 23.8578609 69.14052622 20 66 C20 65.34 20 64.68 20 64 C19.34 64 18.68 64 18 64 C18 63.34 18 62.68 18 62 C17.071875 61.62875 17.071875 61.62875 16.125 61.25 C13.59641373 59.76259631 13.28160996 58.56321991 12 56 C10.06669397 54.90833725 10.06669397 54.90833725 8 54 C7 53 6 52 5 51 C4.01 50.67 3.02 50.34 2 50 C2 49.34 2 48.68 2 48 C1.01 47.6596875 1.01 47.6596875 0 47.3125 C-2.42959832 46.24955073 -4.21376498 45.21756352 -6.375 43.75 C-17.53552162 36.76022528 -27.8056776 34.0392389 -40.79125977 34.38256836 C-42.96150678 34.43811444 -45.12793618 34.44408958 -47.29882812 34.44335938 C-54.47316232 34.49713231 -60.48783755 34.86616073 -67 38 C-68.14210938 38.46277344 -69.28421875 38.92554688 -70.4609375 39.40234375 C-74.62042221 41.28008022 -78.61365386 43.39027811 -82.625 45.5625 C-84.09503471 46.35791214 -85.56635754 47.15094902 -87.0390625 47.94140625 C-87.68053223 48.28888916 -88.32200195 48.63637207 -88.98291016 48.99438477 C-96.08560503 52.53541602 -102.33507972 52.36719053 -110.1875 52.375 C-111.46431641 52.39949219 -112.74113281 52.42398438 -114.05664062 52.44921875 C-121.91602469 52.47346364 -128.00387008 51.63931094 -135 48 C-135.92554688 47.53078125 -136.85109375 47.0615625 -137.8046875 46.578125 C-143.01755249 43.23402293 -146.44157237 40.13118237 -148 34 C-148.95555869 27.18245628 -148.79343185 21.39652423 -144.60546875 15.7421875 C-137.53127023 8.06556332 -128.66814286 3.91048803 -118.25 3.46875 C-115.83333373 3.45824276 -113.41649053 3.46901935 -111 3.5 C-109.19015625 3.47679688 -109.19015625 3.47679688 -107.34375 3.453125 C-97.65365914 3.49525583 -90.02103397 5.5332946 -82 11.0625 C-80.9171875 11.79146484 -80.9171875 11.79146484 -79.8125 12.53515625 C-78 14 -78 14 -76 17 C-63.29605578 23.39750596 -48.8943205 23.62890082 -35 23 C-34.01 22.505 -34.01 22.505 -33 22 C-30.66922657 21.69208131 -28.33758104 21.49104726 -25.99609375 21.28125 C-24.00416869 21.20467988 -24.00416869 21.20467988 -23 20 C-20.66702567 19.95907063 -18.33294775 19.95758277 -16 20 C-16 19.34 -16 18.68 -16 18 C-14.02 17.34 -12.04 16.68 -10 16 C-10 15.34 -10 14.68 -10 14 C-9.34 14 -8.68 14 -8 14 C-7.34 11.36 -6.68 8.72 -6 6 C-5.34 6 -4.68 6 -4 6 C-3.34 4.68 -2.68 3.36 -2 2 C-1.34 2 -0.68 2 0 2 C0 1.34 0 0.68 0 0 Z " fill="##0099FF" transform="translate(304,74)"/>
<path d="M0 0 C9.72197667 8.15343857 16.28605437 19.23848381 17.4296875 31.98681641 C18.03261587 41.3472793 17.56435815 49.51353192 13.25390625 58.02734375 C12.81820312 58.8884375 12.3825 59.74953125 11.93359375 60.63671875 C5.72432916 71.83375325 -3.56372893 79.91348627 -15.80859375 83.90234375 C-28.75508511 86.96042587 -42.36614627 85.87954929 -54.23046875 79.7421875 C-65.60100383 72.70421837 -72.50471414 63.30593211 -76.8828125 50.7734375 C-79.38240197 39.92680266 -79.44180479 26.79141982 -73.74609375 17.02734375 C-73.31039062 16.19203125 -72.8746875 15.35671875 -72.42578125 14.49609375 C-65.8695928 2.6018065 -56.42304637 -4.71794627 -43.49609375 -8.84765625 C-27.67082891 -12.68477211 -13.0664937 -9.38631482 0 0 Z " fill="##0099FF" transform="translate(223.74609375,186.97265625)"/>
<path d="M0 0 C4.90350158 3.46833038 6.97919732 7.09463399 8.5625 12.8125 C9.63225819 27.63897321 2.99339739 40.76396801 -6.0546875 52.06640625 C-16.06402087 63.60175274 -29.53005141 76.54818649 -45.671875 78.015625 C-51.8180073 78.1301492 -57.22100207 77.87026167 -61.94140625 73.3828125 C-66.35156327 68.33186343 -66.73303382 64.27762404 -66.6484375 57.83984375 C-65.28083206 38.21217314 -51.63117618 22.26108951 -37.4375 9.8125 C-26.98632312 1.67081395 -13.22383898 -4.56823528 0 0 Z " fill="##0099FF" transform="translate(85.4375,74.1875)"/>
<path d="M0 0 C2.70010821 2.23602711 2.95561606 2.73369639 3.5625 6.375 C3 10 3 10 0.6875 12.6875 C-5.47777353 17.11422483 -13.50332509 19.48298794 -21 20 C-21.90878906 20.06316406 -22.81757813 20.12632813 -23.75390625 20.19140625 C-30.24562438 20.4383305 -36.15642259 19.77610041 -42.4375 18.25 C-43.09935303 18.09313721 -43.76120605 17.93627441 -44.44311523 17.7746582 C-50.23236748 16.24615486 -54.64475243 14.03287135 -58 9 C-57.92641122 4.95261708 -57.70897065 2.77342252 -54.9375 -0.25 C-51.38365967 -2.36718147 -47.94528417 -3.78551362 -44 -5 C-43.34386719 -5.20753906 -42.68773437 -5.41507813 -42.01171875 -5.62890625 C-27.92807799 -9.42167579 -12.39621744 -7.66518399 0 0 Z " fill="##0099FF" transform="translate(221,21)"/>
</svg>
